<?xml version="1.0" encoding="utf-8"?>
<!-- Generator: Adobe Illustrator 24.0.1, SVG Export Plug-In . SVG Version: 6.00 Build 0)  -->
<svg version="1.1" id="Layer_5" xmlns="http://www.w3.org/2000/svg" xmlns:xlink="http://www.w3.org/1999/xlink" x="0px" y="0px"
	 viewBox="0 0 512 512" style="enable-background:new 0 0 512 512;" xml:space="preserve">
<style type="text/css">
	.st0{fill:#0E1632;}
</style>
<g>
	<path class="st0" d="M421.1,397.7l-0.3-21.4c-3.4-30.6-22.9-56.5-51.2-68.2l-1.4-5.7c6.6-4,11.4-10.5,13-18.3h0.6
		c12.4,0,22.5-10.1,22.5-22.5c0-3-0.6-5.9-1.7-8.5c1-3.1,1.7-6.2,1.7-9.5v-9.3c0-12.4-7.5-23.4-18.8-28.1l-2.9-4.4
		c-5.6-8.5-15.1-13.5-25.2-13.5h-18.7c-17.3,0-32.4,9.4-40.5,23.4c-5.7-4.3-11.9-7.9-18.5-10.7l-1.4-5.7c6.6-4,11.4-10.5,13-18.3
		h0.6c12.4,0,22.5-10.1,22.5-22.5c0-3.8-1.1-7.4-2.8-10.6c1.8-5,2.8-10.3,2.8-15.7c0-25.9-21-46.9-46.9-46.9h-18.8
		c-25.9,0-46.9,21-46.9,46.9c0,5.4,1,10.7,2.8,15.7c-1.7,3.2-2.8,6.7-2.8,10.6c0,12.4,10.1,22.5,22.5,22.5h0.6
		c1.6,7.8,6.4,14.3,13,18.3l-1.4,5.7c-7.8,3.2-14.9,7.6-21.3,12.9c-10.1-15.4-27.4-25.6-47.1-25.6c-31,0-56.3,25.3-56.3,56.3V301
		c0,8.9,3.1,17.4,8.5,24.3c-13.8,13.4-22.8,31.3-25,51.6l-0.3,20.8c-6.6,2.3-11.3,8.5-11.3,15.9v16.9h349v-16.9
		C432.5,406.3,427.7,400.1,421.1,397.7L421.1,397.7z M409.6,377l0.2,19.7h-17.6l-4.9-34.6l-11.1,1.6l4.7,33h-38.5v-2.4
		c0-7.8-5.3-14.6-13-16.5c-1.7-0.4-3.2-1.7-3.9-3.5c-0.7-1.7-0.6-3.6,0.4-5.3c2.2-3.7,2.8-7.9,2-11.9l20-20l20.9,20.9l5-35.2
		C393.7,334.2,407.1,354.2,409.6,377L409.6,377z M308.3,396.7c-2.8-25.3-24.3-45-50.3-45s-47.5,19.7-50.3,45h-22.8v-2.4
		c0-2.6,1.8-4.9,4.5-5.6c5.1-1.3,9.4-5,11.5-10c2.1-5,1.7-10.7-1.1-15.4c-1.4-2.3-1-5.2,0.9-7l11.4-11.4c1.9-1.9,4.7-2.2,7.1-0.8
		c4.6,2.7,10.3,3.1,15.4,1c4.9-2,8.6-6.3,10-11.6c0.6-2.6,2.9-4.3,5.6-4.3H266c2.6,0,4.9,1.8,5.6,4.5c1.3,5.1,5,9.4,10,11.5
		c5,2.1,10.7,1.7,15.4-1.1c2.3-1.3,5.1-1,7,0.9l11.4,11.4c1.9,1.9,2.2,4.8,0.8,7.1c-2.7,4.6-3.1,10.3-1,15.4c2,4.9,6.3,8.6,11.6,10
		c2.6,0.6,4.3,2.9,4.3,5.6v2.4H308.3z M296.9,396.7H219c2.7-19.1,19.1-33.8,39-33.8S294.2,377.7,296.9,396.7z M167.2,396.7l-5.6-45
		h12.6l-5.6,45H167.2z M208.3,333.8c-1.6,0.8-3.1,1.8-4.4,3.1l-11.4,11.4c-5.5,5.5-6.6,14-2.5,20.8c0.9,1.5,1,3.5,0.3,5.3
		c-0.7,1.7-2.1,2.9-4,3.4c-1.6,0.4-3,1-4.3,1.8l7.4-59.2C196.4,323.9,202.8,328.4,208.3,333.8z M173.5,295.4h-11.3
		c-9.3,0-16.9-7.6-16.9-16.9v-23c6.6-1.1,12.7-4.3,17.6-9.1l4.9-4.9l4.9,4.9c4.8,4.8,10.9,8,17.6,9.1v23
		C190.4,287.8,182.8,295.4,173.5,295.4z M162.3,306.7h11.3c1.4,0,2.6-0.2,3.9-0.4l1.6,6.4l-3.5,27.8h-15.4l-3.5-27.8l1.6-6.4
		C159.6,306.4,160.9,306.7,162.3,306.7z M245.2,229.6l-2.1-12.2l6.8,9L245.2,229.6z M258,234.6l3.4,2.3l-2.5,13.5H257l-2.5-13.5
		L258,234.6z M272.8,217.4l-2.1,12.2l-4.7-3.1L272.8,217.4z M257.3,261.6h1.4l7.4,56.3c0,0,0,0-0.1,0h-16.1c0,0,0,0,0,0L257.3,261.6
		z M340.1,329.2l-4.9,4.9l-1.6-11.5L340.1,329.2z M322.1,322.9l4.2,29.6c-0.8-1.5-1.8-2.9-3-4.2L312,337c-1.3-1.3-2.8-2.3-4.3-3.1
		C312,329.6,316.9,326,322.1,322.9z M362.6,322.6l-1.6,11.5l-4.9-4.9L362.6,322.6z M358.7,310.6L348,321.2l-10.7-10.7l1.1-4.3
		c1.3,0.2,2.6,0.4,4,0.4h11.3c1.4,0,2.6-0.2,3.9-0.4L358.7,310.6z M370.5,278.5c0,9.3-7.6,16.9-16.9,16.9h-11.3
		c-9.3,0-16.9-7.6-16.9-16.9v-28.6c6.6-1.1,12.7-4.3,17.6-9.1l4.9-4.9l4.9,4.9c4.8,4.8,10.9,8,17.6,9.1V278.5z M381.8,272.9v-22.5
		c6.2,0,11.3,5,11.3,11.3S388,272.9,381.8,272.9z M338.6,199.7h18.7c6.4,0,12.3,3.2,15.9,8.5l5,7.5l1.8,0.6c7.8,2.6,13,9.9,13,18.1
		v7.8c-3.3-1.9-7.1-3.1-11.3-3.1h-5.6c-5.8,0-11.2-2.2-15.2-6.3L348,219.9l-12.9,12.9c-4.1,4.1-9.5,6.3-15.2,6.3h-5.6
		c-3.9,0-7.4,1.1-10.6,2.8c-0.4-2.2-0.6-4.3-0.6-6.5C303,215.7,319,199.7,338.6,199.7L338.6,199.7z M303,261.6
		c0-6.2,5-11.3,11.3-11.3v22.5C308,272.9,303,267.8,303,261.6z M294.5,251.1c-1.7,3.2-2.8,6.7-2.8,10.6c0,12.4,10.1,22.5,22.5,22.5
		h0.6c1.6,7.8,6.4,14.3,13,18.3l-1.4,5.7c-13.2,5.5-24.8,14.3-33.6,25.5c-0.5,0.2-1.1,0.5-1.6,0.8c-1.5,0.9-3.5,1-5.3,0.3
		c-1.7-0.7-2.9-2.1-3.4-4c-0.8-3-2.3-5.7-4.4-7.8l-8.8-66.9l2.3-12.4l7.4,4.9l5.5-32.4c3.2,1.9,6.2,4.1,9.1,6.4
		c-1.1,4.1-1.8,8.3-1.8,12.7C291.7,240.8,292.7,246,294.5,251.1L294.5,251.1z M291.7,165.9v-22.5c6.2,0,11.3,5,11.3,11.3
		C303,160.9,297.9,165.9,291.7,165.9z M212.9,154.7c0-6.2,5-11.3,11.3-11.3h0.2c-0.1,0.6-0.2,1.3-0.2,1.9v20.6
		C218,165.9,212.9,160.9,212.9,154.7z M246.3,133.8c3.8,5.7,9.6,9.6,17.3,9.6v-11.3c-8.9,0-11.3-11-11.3-16.9h-11.3
		c0,2.7,0.3,5.4,0.9,8.1l-0.7,0.2c-5.3,1.3-9.7,4.5-12.7,8.7h-4.3c-3.9,0-7.4,1.1-10.6,2.8c-0.4-2.2-0.6-4.3-0.6-6.5
		c0-19.7,16-35.6,35.6-35.6h18.8c19.7,0,35.7,16,35.7,35.6c0,2.2-0.2,4.4-0.6,6.5c-3.2-1.7-6.8-2.8-10.6-2.8h-5.6
		c-8.9,0-11.3-11-11.3-16.9h-11.3c0,12.1,5.8,24.3,16.9,27.4v28.9c0,9.3-7.6,16.9-16.9,16.9h-11.3c-9.3,0-16.9-7.6-16.9-16.9v-26.2
		c0-5.2,3.5-9.7,8.5-10.9L246.3,133.8z M252.3,199.7h11.3c1.4,0,2.6-0.2,3.9-0.4l1.2,4.8L258,218.5l-10.8-14.4l1.2-4.8
		C249.7,199.5,251,199.7,252.3,199.7L252.3,199.7z M231.5,216.2l5.5,32.4l7.4-4.9l2.3,12.4l-8.8,66.9c-2.1,2.1-3.7,4.8-4.5,7.9
		c-0.4,1.7-1.7,3.2-3.5,3.9c-1.7,0.7-3.6,0.6-5.3-0.4c-0.5-0.3-1-0.5-1.5-0.7c-2.3-2.9-4.8-5.7-7.5-8.3c5.4-6.9,8.5-15.5,8.5-24.3
		v-56.3c0-7.2-1.4-14-3.9-20.3C223.8,221.3,227.5,218.6,231.5,216.2L231.5,216.2z M122.9,301v-56.3c0-24.8,20.2-45,45-45
		s45,20.2,45,45V301c0,6.3-2.1,12.2-5.8,17.1c-5.4-4-11.3-7.4-17.5-10l-1.4-5.7c8.1-5,13.5-13.8,13.5-23.9v-33.8H196
		c-5.8,0-11.2-2.2-15.2-6.3l-12.9-12.9L155,238.4c-4.1,4.1-9.5,6.3-15.2,6.3h-5.6v33.8c0,10.2,5.5,19,13.5,23.9l-1.4,5.7
		c-6.3,2.6-12.2,6-17.6,9.9C124.9,313.2,122.9,307.3,122.9,301L122.9,301z M146.4,320.5l9.5,76.3H135l4.7-33l-11.1-1.6l-4.9,34.6
		H106l0.2-19.1C109,352.7,124.2,331.4,146.4,320.5L146.4,320.5z M421.2,419.2H94.7v-5.6c0-3.1,2.5-5.6,5.6-5.6h315.2
		c3.1,0,5.6,2.5,5.6,5.6V419.2z"/>
	<path class="st0" d="M173.5,270.6c-3,3-8.3,3-11.3,0l-1.6-1.6l-8,8l1.6,1.6c3.6,3.6,8.5,5.6,13.6,5.6s10-2,13.6-5.6l1.6-1.6l-8-8
		L173.5,270.6z"/>
	<path class="st0" d="M258,177.2c5.1,0,10-2,13.6-5.6l1.6-1.6l-8-8l-1.6,1.6c-3,3-8.3,3-11.3,0l-1.6-1.6l-8,8l1.6,1.6
		C248,175.2,252.8,177.2,258,177.2z"/>
	<path class="st0" d="M342.4,270.6l-1.6-1.6l-8,8l1.6,1.6c3.6,3.6,8.5,5.6,13.6,5.6s10-2,13.6-5.6l1.6-1.6l-8-8l-1.6,1.6
		C350.7,273.5,345.3,273.5,342.4,270.6z"/>
</g>
</svg>
