<?xml version="1.0" encoding="utf-8"?>
<!-- Generator: Adobe Illustrator 24.0.1, SVG Export Plug-In . SVG Version: 6.00 Build 0)  -->
<svg version="1.1" id="Capa_1" xmlns="http://www.w3.org/2000/svg" xmlns:xlink="http://www.w3.org/1999/xlink" x="0px" y="0px"
	 viewBox="0 0 512 512" style="enable-background:new 0 0 512 512;" xml:space="preserve">
<style type="text/css">
	.st0{fill:#0E1632;}
</style>
<g>
	<g>
		<g>
			<path class="st0" d="M430.4,197.4c-10.6,0-19.1,8.6-19.2,19.1v1.2l-25.5,5.6V108l0,0c0-24.7-20-44.6-44.7-44.7H111.2
				c-0.1,0-0.1,0-0.1,0c-24.6,0-44.6,20-44.5,44.7v95.7c0,1.7,0.7,3.3,1.9,4.5c1.2,1.2,2.8,1.9,4.5,1.9h70.2v217
				c0,10.6,8.6,19.1,19.1,19.2h204.3c10.6,0,19.1-8.6,19.1-19.2v-89.8l25.5,5.6v1.2c0,10.6,8.6,19.2,19.2,19.2
				c10.6,0,19.1-8.6,19.1-19.2V216.5C449.5,205.9,440.9,197.4,430.4,197.4z M143.1,197.4H79.3V108c0-8.6,3.5-16.9,9.7-22.9
				c6.2-6,14.6-9.3,23.2-9c17.6,1.1,31.3,15.9,31,33.5C143.1,109.6,143.1,197.4,143.1,197.4z M372.9,427.2c0,3.5-2.9,6.4-6.4,6.4
				H162.3c-3.5,0-6.4-2.9-6.4-6.4V109.6c0-12.6-5.1-24.7-14.1-33.5H341c17.6,0,31.9,14.3,31.9,31.9v118.1L277,246.9
				c-0.8-10.2-9.5-18-19.8-17.6c-10.3,0.4-18.4,8.9-18.3,19.1h-38.3c-3.5,0-6.4,2.9-6.4,6.4c0,3.5,2.9,6.4,6.4,6.4h38.3v19.1h-38.3
				c-3.5,0-6.4,2.9-6.4,6.4s2.9,6.4,6.4,6.4h38.3v19.1h-38.3c-3.5,0-6.4,2.9-6.4,6.4c0,3.5,2.9,6.4,6.4,6.4h43.3
				c5.1,5.7,13.1,7.8,20.3,5.4c7.2-2.5,12.3-9,12.8-16.6l12.9,2.8v11.8c0,9,6.2,16.8,15,18.7l31.9,7.1c5.7,1.3,11.6-0.1,16.1-3.7
				c4.5-3.6,7.2-9.1,7.2-14.9v-3.7l12.8,2.8V427.2L372.9,427.2z M264.4,248.4v63.8c0,3.5-2.9,6.4-6.4,6.4s-6.4-2.9-6.4-6.4v-63.8
				c0-3.5,2.9-6.4,6.4-6.4C261.5,242,264.4,244.9,264.4,248.4z M302.7,328.4v-9.1l44.7,9.7v6.4c0,1.9-0.9,3.8-2.4,5
				c-1.5,1.2-3.5,1.7-5.4,1.2l-31.9-7.1C304.8,334,302.7,331.4,302.7,328.4z M411.2,329.9l-134-29.1V260l134-29.1V329.9z
				 M436.7,344.2c0,3.5-2.9,6.4-6.4,6.4c-3.5,0-6.4-2.9-6.4-6.4V216.5c0-3.5,2.9-6.4,6.4-6.4c3.5,0,6.4,2.9,6.4,6.4V344.2z"/>
			<path class="st0" d="M264.4,210.1c31.7,0,57.5-25.7,57.5-57.4s-25.7-57.5-57.4-57.5s-57.5,25.7-57.5,57.5
				C207,184.4,232.7,210.1,264.4,210.1z M283.5,193c-12.1,5.8-26.2,5.8-38.3,0v-5.7c1.1-9.5,9.6-16.3,19.1-15.4
				c5.1-0.1,10,1.7,13.9,5c3.2,2.5,5.2,6.4,5.2,10.5V193z M251.6,146.3c0-7.1,5.7-12.8,12.8-12.8s12.8,5.7,12.8,12.8
				c0,7.1-5.7,12.8-12.8,12.8C257.3,159.1,251.6,153.3,251.6,146.3z M223.1,135.6c6.9-16.7,23.2-27.6,41.3-27.6
				c18.1,0,34.4,10.9,41.3,27.6c6.9,16.7,3.1,35.9-9.7,48.7c-0.8-6.7-4.2-12.9-9.4-17.2c-1.3-1.1-2.6-2-4-2.9
				c9.9-10,9.8-26.1-0.1-36c-10-9.9-26.1-9.9-36,0c-10,9.9-10.1,26-0.2,36c-7.3,4.3-12.2,11.7-13.4,20.1
				C220,171.5,216.2,152.3,223.1,135.6z"/>
			<path class="st0" d="M200.6,356.9h76.6c3.5,0,6.4-2.9,6.4-6.4c0-3.5-2.9-6.4-6.4-6.4h-76.6c-3.5,0-6.4,2.9-6.4,6.4
				C194.2,354.1,197,356.9,200.6,356.9z"/>
			<path class="st0" d="M328.2,376.1H200.6c-3.5,0-6.4,2.9-6.4,6.4c0,3.5,2.9,6.4,6.4,6.4h127.7c3.5,0,6.4-2.9,6.4-6.4
				C334.6,379,331.7,376.1,328.2,376.1z"/>
		</g>
	</g>
</g>
</svg>
