<?xml version="1.0" encoding="utf-8"?>
<!-- Generator: Adobe Illustrator 24.0.1, SVG Export Plug-In . SVG Version: 6.00 Build 0)  -->
<svg version="1.1" id="petition" xmlns="http://www.w3.org/2000/svg" xmlns:xlink="http://www.w3.org/1999/xlink" x="0px" y="0px"
	 viewBox="0 0 512 512" style="enable-background:new 0 0 512 512;" xml:space="preserve">
<style type="text/css">
	.st0{fill:#0E1632;}
</style>
<path class="st0" d="M441.5,74.6c1.7,0,3.5-0.7,4.8-2l11.6-11.6c2.7-2.7,2.7-7,0-9.7c-2.7-2.7-7-2.7-9.7,0L436.6,63
	c-2.7,2.7-2.7,7,0,9.7C438,74,439.7,74.6,441.5,74.6L441.5,74.6z"/>
<path class="st0" d="M421.2,78.4L409.6,90c-2.7,2.7-2.7,7,0,9.7c1.3,1.3,3.1,2,4.8,2s3.5-0.7,4.8-2l11.6-11.6c2.7-2.7,2.7-7,0-9.7
	S423.9,75.7,421.2,78.4z"/>
<path class="st0" d="M419.9,71.4c1.3,1.3,3.1,2,4.8,2s3.5-0.7,4.8-2c2.7-2.7,2.7-7,0-9.7L417.9,50c-2.7-2.7-7-2.7-9.7,0
	c-2.7,2.7-2.7,7,0,9.7L419.9,71.4z"/>
<path class="st0" d="M446.3,78.4c-2.7-2.7-7-2.7-9.7,0c-2.7,2.7-2.7,7,0,9.7l11.6,11.6c1.3,1.3,3.1,2,4.8,2c1.7,0,3.5-0.7,4.8-2
	c2.7-2.7,2.7-7,0-9.7L446.3,78.4z"/>
<path class="st0" d="M305,81.7H102.9c-1.8,0-3.5,0.7-4.8,2l-43.9,43.9c-1.3,1.3-2,3-2,4.8v324.8c0,3.8,3.1,6.8,6.8,6.8h246
	c3.8,0,6.8-3.1,6.8-6.8V88.5C311.8,84.7,308.7,81.7,305,81.7z M99.7,107.2v21.5H76.4L99.7,107.2z M298.1,450.3H65.8v-308h40.8
	c3.8,0,6.8-3.1,6.8-6.8V95.3h184.7V450.3z"/>
<path class="st0" d="M99.7,177.2c-3.8,0-6.8,3.1-6.8,6.8v54.6c0,3.8,3.1,6.8,6.8,6.8h54.6c3.8,0,6.8-3.1,6.8-6.8v-54.6
	c0-3.8-3.1-6.8-6.8-6.8H99.7z M147.5,231.9h-41v-41h41V231.9z"/>
<path class="st0" d="M186.4,203.8h46.5c3.8,0,6.8-3.1,6.8-6.8c0-3.8-3.1-6.8-6.8-6.8h-46.5c-3.8,0-6.8,3.1-6.8,6.8
	C179.5,200.8,182.6,203.8,186.4,203.8L186.4,203.8z"/>
<path class="st0" d="M181.7,225c0,3.8,3.1,6.8,6.8,6.8h75.1c3.8,0,6.8-3.1,6.8-6.8c0-3.8-3.1-6.8-6.8-6.8h-75.1
	C184.7,218.2,181.7,221.3,181.7,225L181.7,225z"/>
<path class="st0" d="M161.2,272.8c0-3.8-3.1-6.8-6.8-6.8H99.7c-3.8,0-6.8,3.1-6.8,6.8v54.6c0,3.8,3.1,6.8,6.8,6.8h54.6
	c3.8,0,6.8-3.1,6.8-6.8v-31.3l11.7-11.7c2.7-2.7,2.7-7,0-9.7s-7-2.7-9.7,0l-2,2L161.2,272.8z M147.5,320.6h-13.7h-27.3v-41h41v10.8
	l-13.7,13.7l-8.8-8.8c-2.7-2.7-7-2.7-9.7,0c-2.7,2.7-2.7,7,0,9.7l13.7,13.7c1.3,1.3,3.1,2,4.8,2s3.5-0.7,4.8-2l8.8-8.8V320.6z"/>
<path class="st0" d="M186.4,292.6h46.5c3.8,0,6.8-3.1,6.8-6.8c0-3.8-3.1-6.8-6.8-6.8h-46.5c-3.8,0-6.8,3.1-6.8,6.8
	C179.5,289.5,182.6,292.6,186.4,292.6L186.4,292.6z"/>
<path class="st0" d="M263.6,306.9h-75.1c-3.8,0-6.8,3.1-6.8,6.8s3.1,6.8,6.8,6.8h75.1c3.8,0,6.8-3.1,6.8-6.8
	S267.3,306.9,263.6,306.9z"/>
<path class="st0" d="M154.3,361.6H99.7c-3.8,0-6.8,3.1-6.8,6.8V423c0,3.8,3.1,6.8,6.8,6.8h54.6c3.8,0,6.8-3.1,6.8-6.8v-54.6
	C161.2,364.6,158.1,361.6,154.3,361.6z M147.5,416.2h-41v-41h41V416.2z"/>
<path class="st0" d="M186.4,388.1h46.5c3.8,0,6.8-3.1,6.8-6.8c0-3.8-3.1-6.8-6.8-6.8h-46.5c-3.8,0-6.8,3.1-6.8,6.8
	C179.5,385.1,182.6,388.1,186.4,388.1L186.4,388.1z"/>
<path class="st0" d="M263.6,402.5h-75.1c-3.8,0-6.8,3.1-6.8,6.8c0,3.8,3.1,6.8,6.8,6.8h75.1c3.8,0,6.8-3.1,6.8-6.8
	C270.4,405.6,267.3,402.5,263.6,402.5z"/>
<path class="st0" d="M393.3,388.7V115.8V109c0-18.8-15.3-34.1-34.1-34.1S325,90.2,325,109v6.8v272.9v0v0.1c0,0.4,0.2,0.8,0.2,1.2
	c0.1,0.5,0.1,0.9,0.2,1.4l10.9,27.3l16.4,41c1,2.6,3.5,4.3,6.3,4.3c2.8,0,5.3-1.7,6.3-4.3l16.4-41l10.9-27.3
	c0.2-0.4,0.2-0.9,0.3-1.4c0.1-0.4,0.2-0.8,0.2-1.2V388.7C393.3,388.7,393.3,388.7,393.3,388.7L393.3,388.7z M370.9,409.3h-23.5
	l-5.5-13.7h34.4L370.9,409.3z M366,245.5c3.8,0,6.8-3.1,6.8-6.8V122.6h6.8V382h-41V122.6h20.5v116.1
	C359.1,242.4,362.2,245.5,366,245.5z M359.1,88.5c11.3,0,20.5,9.2,20.5,20.5h-41C338.7,97.7,347.8,88.5,359.1,88.5z M359.1,438.7
	l-6.3-15.8h12.6L359.1,438.7z"/>
</svg>
