<?xml version="1.0" encoding="utf-8"?>
<!-- Generator: Adobe Illustrator 24.0.1, SVG Export Plug-In . SVG Version: 6.00 Build 0)  -->
<svg version="1.1" id="Capa_1" xmlns="http://www.w3.org/2000/svg" xmlns:xlink="http://www.w3.org/1999/xlink" x="0px" y="0px"
	 viewBox="0 0 512 512" style="enable-background:new 0 0 512 512;" xml:space="preserve">
<style type="text/css">
	.st0{fill:#0E1632;}
</style>
<g>
	<g>
		<path class="st0" d="M406.4,367.1c4.1-5.6,6.5-12.5,6.5-19.9v-44.5c0-4.1-3.3-7.4-7.4-7.4h-33.1c-15.3,0-27.7,12.4-27.7,27.7v24.1
			c0,7.4,2.4,14.3,6.5,19.9c-5.1,0.8-9.9,2.4-14.5,4.8c-10.3-15.3-27.1-25.9-46.5-27.7c-0.1,0-0.2,0-0.2-0.1
			c6.9-7.7,11.2-17.9,11.2-29.1v-60.5c0-4.1-3.3-7.4-7.4-7.4h-45c-19.3,0-35,15.7-35,35V315c0,11.2,4.2,21.4,11.2,29.1
			c-0.1,0-0.2,0-0.2,0.1c-19.4,1.8-36.2,12.4-46.5,27.7c-4.5-2.4-9.4-4-14.5-4.8c4.1-5.6,6.5-12.5,6.5-19.9v-44.5
			c0-4.1-3.3-7.4-7.4-7.4h-33.1c-15.3,0-27.7,12.4-27.7,27.7v24.1c0,7.4,2.4,14.3,6.5,19.9c-22.9,3.7-40.5,23.7-40.5,47.6v21.9
			c0,4.1,3.3,7.4,7.4,7.4h364.2c4.1,0,7.4-3.3,7.4-7.4v-21.9C446.9,390.8,429.3,370.8,406.4,367.1z M116.7,323
			c0-7.1,5.8-12.9,12.9-12.9h25.7v9c0,4.4-3.6,8-8,8h-30.6V323z M116.7,341.9h30.6c2.8,0,5.5-0.5,8-1.5v6.7
			c0,10.6-8.7,19.3-19.3,19.3s-19.3-8.7-19.3-19.3V341.9z M140.7,381.3L136,386l-4.8-4.8H140.7z M167.5,406.9v22.4H82.7v-14.5
			c0-16.6,12.2-30.4,28-33l20,20c1.4,1.4,3.3,2.2,5.2,2.2s3.8-0.8,5.2-2.2l20-20c3.5,0.6,6.9,1.7,10.1,3.4
			C168.8,391.9,167.5,399.2,167.5,406.9z M257.4,343.9c-15.9,0-28.9-13-28.9-28.9v-9.8h44.2c4.9,0,9.5-1.3,13.6-3.5V315
			C286.3,330.9,273.3,343.9,257.4,343.9z M270.3,358.7l-12.9,12.9l-12.9-12.9H270.3z M228.5,282.2L228.5,282.2
			c0-11.2,9.1-20.2,20.2-20.2h37.6v14.9c0,7.5-6.1,13.6-13.6,13.6h-44.2V282.2L228.5,282.2z M332.5,429.3h-14.4H196.7h-14.4v-14.8
			h48.2c4.1,0,7.4-3.3,7.4-7.4s-3.3-7.4-7.4-7.4h-47.7c3.2-21,20-37.6,41.2-40.5l28.2,28.2c1.4,1.4,3.3,2.2,5.2,2.2
			c1.9,0,3.8-0.7,5.2-2.2l28.2-28.2c23.5,3.2,41.7,23.3,41.7,47.7L332.5,429.3L332.5,429.3z M359.4,323c0-7.1,5.8-12.9,12.9-12.9
			h25.7v9c0,4.4-3.6,8-8,8h-30.6V323z M359.4,341.9H390c2.8,0,5.5-0.5,8-1.5v6.7c0,10.6-8.7,19.3-19.3,19.3s-19.3-8.7-19.3-19.3
			L359.4,341.9L359.4,341.9z M383.5,381.3l-4.8,4.8l-4.8-4.8H383.5z M347.3,429.3v-22.4c0-7.6-1.4-15-3.9-21.8
			c3.2-1.7,6.6-2.8,10.1-3.4l20,20c1.4,1.4,3.3,2.2,5.2,2.2c2,0,3.8-0.8,5.2-2.2l20-20c15.9,2.6,28,16.4,28,33v14.5H347.3z"/>
	</g>
</g>
<g>
	<g>
		<path class="st0" d="M293.8,113.4c-2.9-2.9-7.6-2.9-10.5,0L247,149.7L231.3,134c-2.9-2.9-7.6-2.9-10.5,0c-2.9,2.9-2.9,7.6,0,10.5
			l20.9,20.9c1.4,1.4,3.3,2.2,5.2,2.2c2,0,3.8-0.8,5.2-2.2l41.6-41.6C296.7,121,296.7,116.3,293.8,113.4z"/>
	</g>
</g>
<g>
	<g>
		<path class="st0" d="M287.6,71.5c-3.7-1.7-8.1,0-9.8,3.7s0,8.1,3.7,9.8c21.5,9.6,35.3,30.9,35.3,54.4c0,32.8-26.7,59.6-59.6,59.6
			s-59.6-26.7-59.6-59.6c0-23.4,13.8-44.7,35.1-54.3c3.7-1.7,5.4-6.1,3.7-9.8c-1.7-3.7-6.1-5.4-9.8-3.7
			c-26.6,12-43.8,38.6-43.8,67.8c0,41,33.4,74.4,74.4,74.4s74.4-33.4,74.4-74.4C331.7,110.1,314.4,83.4,287.6,71.5z"/>
	</g>
</g>
<g>
	<g>
		<path class="st0" d="M257.6,65.1h-0.3c-4.1,0-7.4,3.3-7.4,7.4c0,4.1,3.3,7.4,7.4,7.4h0.2c0,0,0,0,0,0c4.1,0,7.4-3.3,7.4-7.4
			C265,68.4,261.7,65.1,257.6,65.1z"/>
	</g>
</g>
<g>
	<g>
		<path class="st0" d="M262.6,401.8c-1.4-1.4-3.3-2.2-5.2-2.2c-1.9,0-3.9,0.8-5.2,2.2c-1.4,1.4-2.2,3.3-2.2,5.2s0.8,3.9,2.2,5.2
			c1.4,1.4,3.3,2.2,5.2,2.2c1.9,0,3.9-0.8,5.2-2.2c1.4-1.4,2.2-3.3,2.2-5.2S264,403.2,262.6,401.8z"/>
	</g>
</g>
</svg>
